<?xml version="1.0" standalone="no"?>
<!DOCTYPE svg PUBLIC "-//W3C//DTD SVG 20010904//EN"
 "http://www.w3.org/TR/2001/REC-SVG-20010904/DTD/svg10.dtd">
<svg version="1.0" xmlns="http://www.w3.org/2000/svg"
 width="290.000000pt" height="290.000000pt" viewBox="0 0 290.000000 290.000000"
 preserveAspectRatio="xMidYMid meet">
<g transform="translate(0.000000,290.000000) scale(0.100000,-0.100000)"
fill="#000000" stroke="none">
<path d="M955 2881 c-55 -25 -105 -109 -124 -211 -16 -88 -7 -320 19 -439 43
-202 133 -432 215 -547 l34 -48 -39 -42 c-21 -23 -48 -60 -59 -82 l-20 -39 42
-21 c55 -27 152 -59 202 -66 23 -4 52 -9 65 -12 14 -2 70 -6 126 -8 166 -6
341 27 461 86 l42 21 -20 39 c-11 22 -38 59 -59 82 l-39 42 35 50 c97 136 189
388 229 625 18 110 13 345 -9 414 -68 217 -221 217 -386 0 -64 -85 -140 -240
-182 -372 -18 -56 -35 -103 -38 -103 -3 0 -18 41 -33 91 -69 225 -199 437
-317 515 -39 26 -114 39 -145 25z m177 -368 c111 -117 219 -445 232 -707 3
-51 -11 -76 -43 -76 -10 0 -38 -7 -62 -15 -52 -19 -54 -17 -104 83 -34 69 -99
251 -110 310 -3 15 -7 38 -10 52 -2 14 -9 48 -14 75 -16 84 -9 256 12 288 25
38 56 35 99 -10z m741 -3 c16 -30 18 -52 13 -160 -8 -183 -60 -387 -141 -552
-50 -102 -48 -100 -127 -78 -36 10 -69 16 -72 12 -15 -14 -6 224 9 248 2 3 6
21 9 40 19 117 89 317 143 409 70 121 130 150 166 81z"/>
<path d="M701 1812 c-81 -49 -163 -130 -193 -190 -18 -36 -23 -63 -22 -117 1
-89 25 -139 108 -220 131 -127 357 -212 666 -251 66 -8 320 -8 378 0 23 3 61
9 85 12 148 20 321 74 442 137 91 48 190 139 226 207 33 63 33 166 1 231 -29
59 -113 145 -183 186 -80 47 -82 48 -103 11 -11 -18 -40 -59 -64 -92 l-45 -58
31 -24 c94 -74 98 -178 10 -260 -115 -108 -335 -165 -618 -159 -91 1 -176 6
-190 9 -14 3 -38 9 -55 12 -114 20 -246 77 -307 132 -95 85 -95 175 -1 258
l35 30 -57 80 c-32 43 -60 85 -62 92 -7 18 -13 16 -82 -26z"/>
<path d="M661 1063 c-2 -32 -4 -81 -6 -110 -2 -39 2 -56 14 -67 43 -39 262
-130 363 -150 52 -11 139 -27 170 -32 75 -13 405 -12 493 1 230 34 409 94 527
177 25 17 26 23 23 76 -2 31 -5 79 -6 105 -1 26 -5 50 -9 52 -4 2 -36 -11 -71
-30 -119 -62 -246 -103 -409 -131 -105 -18 -403 -27 -490 -15 -36 5 -84 12
-107 15 -128 16 -298 71 -412 131 -36 19 -68 35 -72 35 -3 0 -7 -26 -8 -57z"/>
<path d="M644 762 c-1 -20 -5 -100 -9 -177 -4 -77 -8 -156 -8 -176 1 -70 58
-160 143 -221 84 -60 245 -125 367 -147 127 -23 154 -26 308 -26 242 0 368 22
535 92 191 81 295 194 292 318 0 28 -4 102 -7 165 -4 63 -7 135 -8 160 -2 51
0 51 -85 3 -102 -57 -270 -112 -427 -138 -129 -22 -376 -26 -513 -9 -204 25
-381 78 -509 151 -38 21 -70 39 -73 40 -3 2 -6 -14 -6 -35z"/>
</g>
</svg>
